<?xml version="1.0" encoding="UTF-8" standalone="no"?>
<!-- Created with Inkscape (http://www.inkscape.org/) -->

<svg
   xmlns:dc="http://purl.org/dc/elements/1.1/"
   xmlns:cc="http://creativecommons.org/ns#"
   xmlns:rdf="http://www.w3.org/1999/02/22-rdf-syntax-ns#"
   xmlns:svg="http://www.w3.org/2000/svg"
   xmlns="http://www.w3.org/2000/svg"
   xmlns:sodipodi="http://sodipodi.sourceforge.net/DTD/sodipodi-0.dtd"
   xmlns:inkscape="http://www.inkscape.org/namespaces/inkscape"
   width="480px"
   height="272px"
   viewBox="0 0 480 272"
   version="1.1"
   id="SVGRoot"
   inkscape:version="0.92.2 (5c3e80d, 2017-08-06)"
   sodipodi:docname="PAG_MAIN.svg">
  <sodipodi:namedview
     id="base"
     pagecolor="#ffffff"
     bordercolor="#666666"
     borderopacity="1.0"
     inkscape:pageopacity="0.0"
     inkscape:pageshadow="2"
     inkscape:zoom="2.1537294"
     inkscape:cx="276.21978"
     inkscape:cy="113.4628"
     inkscape:document-units="px"
     inkscape:current-layer="layer5"
     showgrid="true"
     inkscape:window-width="1920"
     inkscape:window-height="1057"
     inkscape:window-x="-8"
     inkscape:window-y="-8"
     inkscape:window-maximized="1"
     showguides="true"
     inkscape:guide-bbox="true">
    <inkscape:grid
       type="xygrid"
       id="grid1948" />
  </sodipodi:namedview>
  <defs
     id="defs3707" />
  <metadata
     id="metadata3710">
    <rdf:RDF>
      <cc:Work
         rdf:about="">
        <dc:format>image/svg+xml</dc:format>
        <dc:type
           rdf:resource="http://purl.org/dc/dcmitype/StillImage" />
        <dc:title></dc:title>
      </cc:Work>
    </rdf:RDF>
  </metadata>
  <g
     id="layer1"
     inkscape:groupmode="layer"
     inkscape:label="Layer 1"
     sodipodi:insensitive="true">
    <rect
       id="rect3727"
       width="480"
       height="272"
       x="0"
       y="0" />
  </g>
  <g
     inkscape:groupmode="layer"
     id="layer5"
     inkscape:label="Layer 2">
    <g
       id="g2178">
      <path
         style="fill:#ff7f2a;stroke-width:0.99516225"
         d="M 10.007143,226.95557 C 7.2331857,226.95557 5,229.16089 5,231.90024 v 29.66806 c 0,2.73935 2.2331857,4.94467 5.007143,4.94467 h 40.057134 c 2.773957,0 5.007143,-2.20532 5.007143,-4.94467 v -29.66806 c 0,-2.73935 -2.233186,-4.94467 -5.007143,-4.94467 z m 1.897226,1.97787 H 48.16704 c 2.714943,0 4.901523,2.14609 4.901523,4.8114 v 25.97887 c 0,2.6653 -2.18658,4.81139 -4.901523,4.81139 H 11.904369 c -2.7149326,0 -4.9015118,-2.14609 -4.9015118,-4.81139 v -25.97887 c 0,-2.66531 2.1865792,-4.8114 4.9015118,-4.8114 z"
         id="rect3729-1-3-7"
         inkscape:connector-curvature="0" />
      <text
         transform="scale(1.0062968,0.9937426)"
         xml:space="preserve"
         style="font-style:normal;font-weight:normal;font-size:39.80649185px;line-height:1.25;font-family:sans-serif;letter-spacing:0px;word-spacing:0px;fill:#000000;fill-opacity:1;stroke:none;stroke-width:0.99516225;"
         x="8.3584719"
         y="254.07619"
         id="text930-0"><tspan
           sodipodi:role="line"
           id="tspan928-0"
           x="8.3584719"
           y="254.07619"
           style="font-style:normal;font-variant:normal;font-weight:normal;font-stretch:normal;font-size:15.92259598px;font-family:sans-serif;-inkscape-font-specification:'sans-serif, Normal';font-variant-ligatures:normal;font-variant-caps:normal;font-variant-numeric:normal;font-feature-settings:normal;text-align:start;writing-mode:lr-tb;text-anchor:start;fill:#000000;stroke-width:0.99516225;">MAIN</tspan></text>
      <path
         style="fill:#ff7f2a;stroke-width:0.99516225"
         d="m 61.606556,227.28025 c -2.773957,0 -5.007143,2.20533 -5.007143,4.94468 v 29.66805 c 0,2.73935 2.233186,4.94468 5.007143,4.94468 H 101.6637 c 2.77395,0 5.00713,-2.20533 5.00713,-4.94468 v -29.66805 c 0,-2.73935 -2.23318,-4.94468 -5.00713,-4.94468 z m 1.897236,1.97787 h 36.262671 c 2.714947,0 4.901517,2.14609 4.901517,4.8114 v 25.97887 c 0,2.66531 -2.18657,4.8114 -4.901517,4.8114 H 63.503792 c -2.714943,0 -4.901522,-2.14609 -4.901522,-4.8114 v -25.97887 c 0,-2.66531 2.186579,-4.8114 4.901522,-4.8114 z"
         id="rect3729-1-8-1"
         inkscape:connector-curvature="0" />
      <text
         transform="scale(1.0062968,0.9937426)"
         xml:space="preserve"
         style="font-style:normal;font-variant:normal;font-weight:normal;font-stretch:normal;font-size:15.92259598px;line-height:1.25;font-family:sans-serif;-inkscape-font-specification:'sans-serif, Normal';font-variant-ligatures:normal;font-variant-caps:normal;font-variant-numeric:normal;font-feature-settings:normal;text-align:start;letter-spacing:0px;word-spacing:0px;writing-mode:lr-tb;text-anchor:start;fill:#ff7f2a;fill-opacity:1;stroke:none;stroke-width:0.99516225"
         x="62.993683"
         y="254.40289"
         id="text934-9"><tspan
           style="stroke-width:0.99516225"
           sodipodi:role="line"
           id="tspan932-6"
           x="62.993683"
           y="254.40289">MAN</tspan></text>
      <path
         style="fill:#ff7f2a;stroke-width:0.99516225"
         d="m 113.5072,227.28025 c -2.77396,0 -5.00714,2.20533 -5.00714,4.94468 v 29.66805 c 0,2.73935 2.23318,4.94468 5.00714,4.94468 h 40.05714 c 2.77396,0 5.00715,-2.20533 5.00715,-4.94468 v -29.66805 c 0,-2.73935 -2.23319,-4.94468 -5.00715,-4.94468 z m 1.89724,1.97787 h 36.26267 c 2.71494,0 4.90152,2.14609 4.90152,4.8114 v 25.97887 c 0,2.66531 -2.18658,4.8114 -4.90152,4.8114 h -36.26267 c -2.71495,0 -4.90153,-2.14609 -4.90153,-4.8114 v -25.97887 c 0,-2.66531 2.18658,-4.8114 4.90153,-4.8114 z"
         id="rect3729-1-70"
         inkscape:connector-curvature="0" />
      <text
         transform="scale(1.0062968,0.9937426)"
         xml:space="preserve"
         style="font-style:normal;font-variant:normal;font-weight:normal;font-stretch:normal;font-size:15.92259598px;line-height:1.25;font-family:sans-serif;-inkscape-font-specification:'sans-serif, Normal';font-variant-ligatures:normal;font-variant-caps:normal;font-variant-numeric:normal;font-feature-settings:normal;text-align:start;letter-spacing:0px;word-spacing:0px;writing-mode:lr-tb;text-anchor:start;fill:#000000;fill-opacity:1;stroke:none;stroke-width:0.99516225;"
         x="114.23527"
         y="254.40289"
         id="text938-6"><tspan
           style="stroke-width:0.99516225;fill:#000000;"
           sodipodi:role="line"
           id="tspan936-9"
           x="114.23527"
           y="254.40289">MEM</tspan></text>
      <path
         style="fill:#ff7f2a;stroke-width:0.99516225"
         d="m 165.07908,227.4426 c -2.77396,0 -5.00714,2.20532 -5.00714,4.94467 v 29.66805 c 0,2.73935 2.23318,4.94468 5.00714,4.94468 h 40.05714 c 2.77396,0 5.00715,-2.20533 5.00715,-4.94468 v -29.66805 c 0,-2.73935 -2.23319,-4.94467 -5.00715,-4.94467 z m 1.89724,1.97787 h 36.26267 c 2.71494,0 4.90152,2.14608 4.90152,4.81139 v 25.97887 c 0,2.66531 -2.18658,4.8114 -4.90152,4.8114 h -36.26267 c -2.71495,0 -4.90153,-2.14609 -4.90153,-4.8114 v -25.97887 c 0,-2.66531 2.18658,-4.81139 4.90153,-4.81139 z"
         id="rect3729-1-9-6"
         inkscape:connector-curvature="0" />
      <text
         transform="scale(1.0062968,0.9937426)"
         xml:space="preserve"
         style="font-style:normal;font-variant:normal;font-weight:normal;font-stretch:normal;font-size:15.92259598px;line-height:1.25;font-family:sans-serif;-inkscape-font-specification:'sans-serif, Normal';font-variant-ligatures:normal;font-variant-caps:normal;font-variant-numeric:normal;font-feature-settings:normal;text-align:start;letter-spacing:0px;word-spacing:0px;writing-mode:lr-tb;text-anchor:start;fill:#ff7f2a;fill-opacity:1;stroke:none;stroke-width:0.99516225"
         x="161.23944"
         y="254.56627"
         id="text942-2"><tspan
           style="stroke-width:0.99516225"
           sodipodi:role="line"
           id="tspan940-0"
           x="161.23944"
           y="254.56627">CONF</tspan></text>
    </g>
    <g
       id="g2117"
       transform="translate(10,-4.9999961)">
      <g
         style="fill:#ff7f2a"
         transform="matrix(1.0000022,0,0,1,132.29393,-141.05225)"
         id="g1038">
        <g
           style="fill:#ff7f2a"
           id="g978"
           transform="translate(-81.694697,61.125707)">
          <g
             style="fill:#ff7f2a"
             id="g999"
             transform="translate(5.7455541,-39.835841)">
            <path
               style="fill:#ff7f2a"
               d="m 207.70458,351.76238 c -2.77,0 -5,2.23 -5,5 v 30 c 0,2.77 2.23,5 5,5 h 40 c 2.77,0 5,-2.23 5,-5 v -30 c 0,-2.77 -2.23,-5 -5,-5 z m 1.89453,2 h 36.21094 c 2.71107,0 4.89453,2.1701 4.89453,4.86523 v 26.26954 c 0,2.69513 -2.18346,4.86523 -4.89453,4.86523 h -36.21094 c -2.71107,0 -4.89453,-2.1701 -4.89453,-4.86523 v -26.26954 c 0,-2.69513 2.18346,-4.86523 4.89453,-4.86523 z"
               id="rect3729-6"
               inkscape:connector-curvature="0" />
            <path
               sodipodi:type="star"
               style="fill:#ff7f2a"
               id="path3778"
               sodipodi:sides="3"
               sodipodi:cx="351.79013"
               sodipodi:cy="252.4408"
               sodipodi:r1="12.950573"
               sodipodi:r2="6.4752865"
               sodipodi:arg1="2.6303619"
               sodipodi:arg2="3.6775595"
               inkscape:flatsided="false"
               inkscape:rounded="0"
               inkscape:randomized="0"
               d="m 340.49538,258.77688 5.72746,-9.64284 5.72746,-9.64283 5.48721,9.78155 5.4872,9.78154 -11.21466,-0.13871 z"
               inkscape:transform-center-x="0.078550591"
               inkscape:transform-center-y="-3.2387931"
               transform="matrix(0.98085834,0,0,1.0223337,-117.27315,116.92244)" />
          </g>
        </g>
        <g
           style="fill:#ff7f2a"
           id="g974"
           transform="translate(29.68277,21.125706)">
          <path
             inkscape:connector-curvature="0"
             id="rect3729"
             d="m 154.07646,351.92654 c -2.77,0 -5,2.23 -5,5 v 30 c 0,2.77 2.23,5 5,5 h 40 c 2.77,0 5,-2.23 5,-5 v -30 c 0,-2.77 -2.23,-5 -5,-5 z m 1.89453,2 h 36.21094 c 2.71107,0 4.89453,2.1701 4.89453,4.86523 v 26.26954 c 0,2.69513 -2.18346,4.86523 -4.89453,4.86523 h -36.21094 c -2.71107,0 -4.89453,-2.1701 -4.89453,-4.86523 v -26.26954 c 0,-2.69513 2.18346,-4.86523 4.89453,-4.86523 z"
             style="fill:#ff7f2a" />
          <path
             transform="matrix(-0.98074411,0.00967811,-0.00923535,-1.0277629,775.48254,595.67825)"
             inkscape:transform-center-y="3.3106407"
             inkscape:transform-center-x="-0.018742102"
             d="m 599.80382,233.01934 5.72746,-9.64283 5.72746,-9.64283 5.48721,9.78154 5.4872,9.78154 -11.21466,-0.13871 z"
             inkscape:randomized="0"
             inkscape:rounded="0"
             inkscape:flatsided="false"
             sodipodi:arg2="3.6775595"
             sodipodi:arg1="2.6303619"
             sodipodi:r2="6.4752865"
             sodipodi:r1="12.950573"
             sodipodi:cy="226.68326"
             sodipodi:cx="611.09857"
             sodipodi:sides="3"
             id="path3778-9"
             style="fill:#ff7f2a"
             sodipodi:type="star" />
        </g>
        <g
           style="fill:#ff7f2a"
           id="g982"
           transform="translate(-0.61756373,4.0532021)">
          <g
             style="fill:#ff7f2a"
             id="g995"
             transform="translate(-19.699043,17.072504)">
            <path
               style="fill:#ff7f2a"
               d="m 256.07963,351.92654 c -2.77,0 -5,2.23 -5,5 v 30 c 0,2.77 2.23,5 5,5 h 40 c 2.77,0 5,-2.23 5,-5 v -30 c 0,-2.77 -2.23,-5 -5,-5 z m 1.89453,2 h 36.21094 c 2.71107,0 4.89453,2.1701 4.89453,4.86523 v 26.26954 c 0,2.69513 -2.18346,4.86523 -4.89453,4.86523 h -36.21094 c -2.71107,0 -4.89453,-2.1701 -4.89453,-4.86523 v -26.26954 c 0,-2.69513 2.18346,-4.86523 4.89453,-4.86523 z"
               id="rect3729-5"
               inkscape:connector-curvature="0" />
            <path
               sodipodi:type="star"
               style="fill:#ff7f2a"
               id="path3778-5"
               sodipodi:sides="3"
               sodipodi:cx="623.4953"
               sodipodi:cy="242.66118"
               sodipodi:r1="12.950573"
               sodipodi:r2="6.4752865"
               sodipodi:arg1="2.6303619"
               sodipodi:arg2="3.6775595"
               inkscape:flatsided="false"
               inkscape:rounded="0"
               inkscape:randomized="0"
               d="m 612.20055,248.99726 5.72746,-9.64283 5.72746,-9.64283 5.48721,9.78154 5.4872,9.78154 -11.21466,-0.13871 z"
               inkscape:transform-center-x="3.2387966"
               inkscape:transform-center-y="0.078547653"
               transform="matrix(0,-0.98085834,1.0223337,0,31.237724,983.40855)" />
          </g>
        </g>
        <g
           style="fill:#ff7f2a"
           id="g986"
           transform="translate(-19.314391,21.125706)">
          <path
             inkscape:connector-curvature="0"
             id="rect3729-0"
             d="m 307.08121,351.92655 c -2.77,0 -5,2.23 -5,4.99999 v 30 c 0,2.77 2.23,5 5,5 h 40 c 2.77,0 5,-2.23 5,-5 v -30 c 0,-2.76999 -2.23,-4.99999 -5,-4.99999 z m 1.89453,2 h 36.21094 c 2.71107,0 4.89453,2.17009 4.89453,4.86522 v 26.26954 c 0,2.69513 -2.18346,4.86523 -4.89453,4.86523 h -36.21094 c -2.71107,0 -4.89453,-2.1701 -4.89453,-4.86523 v -26.26954 c 0,-2.69513 2.18346,-4.86522 4.89453,-4.86522 z"
             style="fill:#ff7f2a" />
          <path
             transform="matrix(0,0.98085834,-1.0223337,0,572.4864,-290.08446)"
             inkscape:transform-center-y="-0.078546881"
             inkscape:transform-center-x="-3.2387989"
             d="m 663.71562,249.54824 5.72746,-9.64283 5.72746,-9.64283 5.48721,9.78154 5.48721,9.78154 -11.21467,-0.13871 z"
             inkscape:randomized="0"
             inkscape:rounded="0"
             inkscape:flatsided="false"
             sodipodi:arg2="3.6775595"
             sodipodi:arg1="2.6303619"
             sodipodi:r2="6.4752865"
             sodipodi:r1="12.950573"
             sodipodi:cy="243.21216"
             sodipodi:cx="675.01038"
             sodipodi:sides="3"
             id="path3778-97"
             style="fill:#ff7f2a"
             sodipodi:type="star" />
        </g>
        <g
           style="fill:#ff7f2a"
           id="g1011">
          <path
             inkscape:connector-curvature="0"
             id="rect3729-1-1"
             d="m 287.16487,330.98586 c -2.77,0 -5,2.23 -5,5 v 30 c 0,2.77 2.23,5 5,5 h 40 c 2.77,0 5,-2.23 5,-5 v -30 c 0,-2.77 -2.23,-5 -5,-5 z m 1.89453,2 h 36.21094 c 2.71107,0 4.89453,2.1701 4.89453,4.86523 v 26.26954 c 0,2.69513 -2.18346,4.86523 -4.89453,4.86523 H 289.0594 c -2.71107,0 -4.89453,-2.1701 -4.89453,-4.86523 v -26.26954 c 0,-2.69513 2.18346,-4.86523 4.89453,-4.86523 z"
             style="fill:#ff7f2a" />
          <path
             inkscape:connector-curvature="0"
             id="rect3729-1-7"
             d="m 183.2618,330.65754 c -2.77,0 -5,2.23 -5,5 v 30 c 0,2.77 2.23,5 5,5 h 40 c 2.77,0 5,-2.23 5,-5 v -30 c 0,-2.77 -2.23,-5 -5,-5 z m 1.89453,2 h 36.21094 c 2.71107,0 4.89453,2.1701 4.89453,4.86523 v 26.26954 c 0,2.69513 -2.18346,4.86523 -4.89453,4.86523 h -36.21094 c -2.71107,0 -4.89453,-2.1701 -4.89453,-4.86523 v -26.26954 c 0,-2.69513 2.18346,-4.86523 4.89453,-4.86523 z"
             style="fill:#ff7f2a" />
          <g
             style="fill:#ff7f2a"
             transform="translate(-68.990686,14.963973)"
             id="g5615">
            <path
               style="fill:#ff7f2a"
               d="m 200.30096,316.02189 c -2.77,0 -5,2.23 -5,5 v 30 c 0,2.77 2.23,5 5,5 h 40 c 2.77,0 5,-2.23 5,-5 v -30 c 0,-2.77 -2.23,-5 -5,-5 z m 1.89453,2 h 36.21094 c 2.71107,0 4.89453,2.1701 4.89453,4.86523 v 26.26954 c 0,2.69513 -2.18346,4.86523 -4.89453,4.86523 h -36.21094 c -2.71107,0 -4.89453,-2.1701 -4.89453,-4.86523 v -26.26954 c 0,-2.69513 2.18346,-4.86523 4.89453,-4.86523 z"
               id="rect3729-1-4"
               inkscape:connector-curvature="0" />
            <text
               xml:space="preserve"
               style="font-style:normal;font-weight:normal;font-size:40px;line-height:1.25;font-family:sans-serif;letter-spacing:0px;word-spacing:0px;fill:#ff7f2a;fill-opacity:1;stroke:none"
               x="200.93022"
               y="344.88647"
               id="text5602"><tspan
                 sodipodi:role="line"
                 id="tspan5600"
                 x="200.93022"
                 y="344.88647"
                 style="font-style:normal;font-variant:normal;font-weight:normal;font-stretch:normal;font-size:16px;font-family:sans-serif;-inkscape-font-specification:'sans-serif, Normal';font-variant-ligatures:normal;font-variant-caps:normal;font-variant-numeric:normal;font-feature-settings:normal;text-align:start;writing-mode:lr-tb;text-anchor:start;fill:#ff7f2a">Elev.</tspan></text>
          </g>
          <g
             style="fill:#ff7f2a"
             transform="translate(-33.049327,14.635663)"
             id="g5620">
            <path
               style="fill:#ff7f2a"
               d="m 268.26265,316.02189 c -2.77,0 -5,2.23 -5,5 v 30 c 0,2.77 2.23,5 5,5 h 40 c 2.77,0 5,-2.23 5,-5 v -30 c 0,-2.77 -2.23,-5 -5,-5 z m 1.89453,2 h 36.21094 c 2.71107,0 4.89453,2.1701 4.89453,4.86523 v 26.26954 c 0,2.69513 -2.18346,4.86523 -4.89453,4.86523 h -36.21094 c -2.71107,0 -4.89453,-2.1701 -4.89453,-4.86523 v -26.26954 c 0,-2.69513 2.18346,-4.86523 4.89453,-4.86523 z"
               id="rect3729-1-6"
               inkscape:connector-curvature="0" />
            <text
               xml:space="preserve"
               style="font-style:normal;font-weight:normal;font-size:40px;line-height:1.25;font-family:sans-serif;letter-spacing:0px;word-spacing:0px;fill:#ff7f2a;fill-opacity:1;stroke:none"
               x="266.59369"
               y="345.21478"
               id="text5606"><tspan
                 sodipodi:role="line"
                 x="266.59369"
                 y="345.21478"
                 style="font-style:normal;font-variant:normal;font-weight:normal;font-stretch:normal;font-size:16px;font-family:sans-serif;-inkscape-font-specification:'sans-serif, Normal';font-variant-ligatures:normal;font-variant-caps:normal;font-variant-numeric:normal;font-feature-settings:normal;text-align:start;writing-mode:lr-tb;text-anchor:start;fill:#ff7f2a"
                 id="tspan5608">Azim.</tspan></text>
          </g>
        </g>
      </g>
      <g
         id="g2061">
        <path
           style="fill:#ff7f2a;fill-opacity:1;stroke-width:4.50128603"
           d="m 365.59514,19.547012 a 75,75.000002 0 0 0 -75,75.000001 75,75.000002 0 0 0 75,74.999997 75,75.000002 0 0 0 75,-74.999997 75,75.000002 0 0 0 -75,-75.000001 z m 0,3 a 72,72.000001 0 0 1 72,72.000001 72,72.000001 0 0 1 -72,71.999997 72,72.000001 0 0 1 -72,-71.999997 72,72.000001 0 0 1 72,-72.000001 z"
           id="path5453"
           inkscape:connector-curvature="0" />
        <path
           sodipodi:type="star"
           style="fill:#ff7f2a;fill-opacity:1"
           id="path5512"
           sodipodi:sides="3"
           sodipodi:cx="155.95074"
           sodipodi:cy="-16.590971"
           sodipodi:r1="7.1025906"
           sodipodi:r2="3.5512955"
           sodipodi:arg1="0.5880026"
           sodipodi:arg2="1.6352002"
           inkscape:flatsided="false"
           inkscape:rounded="0"
           inkscape:randomized="0"
           d="m 161.86046,-12.651163 -6.13827,-0.395875 -6.13828,-0.395876 3.41198,-5.117961 3.41197,-5.117961 2.7263,5.513837 z"
           inkscape:transform-center-x="-0.061625163"
           inkscape:transform-center-y="-1.6080214"
           transform="matrix(0.90662477,-0.07415004,0.07585884,0.92751816,225.40328,55.5602)" />
        <path
           sodipodi:type="star"
           style="fill:#ff7f2a;fill-opacity:1"
           id="path5512-1"
           sodipodi:sides="3"
           sodipodi:cx="155.95074"
           sodipodi:cy="-16.590971"
           sodipodi:r1="7.1025906"
           sodipodi:r2="3.5512955"
           sodipodi:arg1="0.5880026"
           sodipodi:arg2="1.6352002"
           inkscape:flatsided="false"
           inkscape:rounded="0"
           inkscape:randomized="0"
           d="m 161.86046,-12.651163 -6.13827,-0.395875 -6.13828,-0.395876 3.41198,-5.117961 3.41197,-5.117961 2.7263,5.513837 z"
           inkscape:transform-center-x="0.061630051"
           inkscape:transform-center-y="1.6080257"
           transform="matrix(-0.90662477,0.07415004,-0.07585884,-0.92751816,505.787,132.75298)" />
        <path
           sodipodi:type="star"
           style="fill:#ff7f2a;fill-opacity:1"
           id="path5512-5"
           sodipodi:sides="3"
           sodipodi:cx="155.95074"
           sodipodi:cy="-16.590971"
           sodipodi:r1="7.1025906"
           sodipodi:r2="3.5512955"
           sodipodi:arg1="0.5880026"
           sodipodi:arg2="1.6352002"
           inkscape:flatsided="false"
           inkscape:rounded="0"
           inkscape:randomized="0"
           d="m 161.86046,-12.651163 -6.13827,-0.395875 -6.13828,-0.395876 3.41198,-5.117961 3.41197,-5.117961 2.7263,5.513837 z"
           inkscape:transform-center-x="1.6080225"
           inkscape:transform-center-y="-0.061628988"
           transform="matrix(-0.07415004,-0.90662477,0.92751816,-0.07585884,327.17771,234.73887)" />
        <path
           sodipodi:type="star"
           style="fill:#ff7f2a;fill-opacity:1"
           id="path5512-50"
           sodipodi:sides="3"
           sodipodi:cx="155.95074"
           sodipodi:cy="-16.590971"
           sodipodi:r1="7.1025906"
           sodipodi:r2="3.5512955"
           sodipodi:arg1="0.5880026"
           sodipodi:arg2="1.6352002"
           inkscape:flatsided="false"
           inkscape:rounded="0"
           inkscape:randomized="0"
           d="m 161.86046,-12.651163 -6.13827,-0.395875 -6.13828,-0.395876 3.41198,-5.117961 3.41197,-5.117961 2.7263,5.513837 z"
           inkscape:transform-center-x="109.36325"
           inkscape:transform-center-y="23.700476"
           transform="matrix(0.07415004,0.90662477,-0.92751816,0.07585884,403.61534,-45.644845)" />
        <text
           xml:space="preserve"
           style="font-style:normal;font-weight:normal;font-size:40px;line-height:1.25;font-family:sans-serif;letter-spacing:0px;word-spacing:0px;fill:#ff7f2a;fill-opacity:1;stroke:none"
           x="359.59512"
           y="18.015047"
           id="text5624"><tspan
             sodipodi:role="line"
             id="tspan5622"
             x="359.59512"
             y="18.015047"
             style="font-style:normal;font-variant:normal;font-weight:normal;font-stretch:normal;font-size:16px;font-family:sans-serif;-inkscape-font-specification:'sans-serif, Normal';font-variant-ligatures:normal;font-variant-caps:normal;font-variant-numeric:normal;font-feature-settings:normal;text-align:start;writing-mode:lr-tb;text-anchor:start;fill:#ff7f2a">N</tspan></text>
        <text
           xml:space="preserve"
           style="font-style:normal;font-weight:normal;font-size:40px;line-height:1.25;font-family:sans-serif;letter-spacing:0px;word-spacing:0px;fill:#ff7f2a;fill-opacity:1;stroke:none"
           x="360.06387"
           y="183.08745"
           id="text5628"><tspan
             sodipodi:role="line"
             id="tspan5626"
             x="360.06387"
             y="183.08745"
             style="font-style:normal;font-variant:normal;font-weight:normal;font-stretch:normal;font-size:16px;font-family:sans-serif;-inkscape-font-specification:'sans-serif, Normal';font-variant-ligatures:normal;font-variant-caps:normal;font-variant-numeric:normal;font-feature-settings:normal;text-align:start;writing-mode:lr-tb;text-anchor:start;fill:#ff7f2a">S</tspan></text>
        <text
           xml:space="preserve"
           style="font-style:normal;font-weight:normal;font-size:40px;line-height:1.25;font-family:sans-serif;letter-spacing:0px;word-spacing:0px;fill:#ff7f2a;fill-opacity:1;stroke:none"
           x="440.45877"
           y="100.36342"
           id="text5632"><tspan
             sodipodi:role="line"
             id="tspan5630"
             x="440.45877"
             y="100.36342"
             style="font-style:normal;font-variant:normal;font-weight:normal;font-stretch:normal;font-size:16px;font-family:sans-serif;-inkscape-font-specification:'sans-serif, Normal';font-variant-ligatures:normal;font-variant-caps:normal;font-variant-numeric:normal;font-feature-settings:normal;text-align:start;writing-mode:lr-tb;text-anchor:start;fill:#ff7f2a">E</tspan></text>
        <text
           xml:space="preserve"
           style="font-style:normal;font-weight:normal;font-size:40px;line-height:1.25;font-family:sans-serif;letter-spacing:0px;word-spacing:0px;fill:#ff7f2a;fill-opacity:1;stroke:none"
           x="273.26187"
           y="100.36342"
           id="text5636"><tspan
             sodipodi:role="line"
             id="tspan5634"
             x="273.26187"
             y="100.36342"
             style="font-style:normal;font-variant:normal;font-weight:normal;font-stretch:normal;font-size:16px;font-family:sans-serif;-inkscape-font-specification:'sans-serif, Normal';font-variant-ligatures:normal;font-variant-caps:normal;font-variant-numeric:normal;font-feature-settings:normal;text-align:start;writing-mode:lr-tb;text-anchor:start;fill:#ff7f2a">W</tspan></text>
        <circle
           style="fill:#ff7f2a;fill-opacity:1;stroke-width:0.28708228"
           id="path1953"
           cx="365.59512"
           cy="94.547012"
           r="5.0239396" />
      </g>
      <g
         transform="translate(-5.3284881)"
         id="g2071">
        <path
           style="fill:#ff7f2a;fill-opacity:1;stroke-width:0.61791909"
           d="m 280.38219,138.73608 a 25,25 0 0 0 -16.44922,23.49219 25,25 0 0 0 16.44922,23.49219 l 0.69336,-1.90625 a 23,23 0 0 1 -15.14258,-21.58594 23,23 0 0 1 15.14062,-21.5957 z"
           id="path5654"
           inkscape:connector-curvature="0" />
        <circle
           style="fill:#ff7f2a;fill-opacity:1;stroke-width:0.28708228"
           id="path1953-9"
           cx="289.94534"
           cy="162.22827"
           r="5.0239396" />
      </g>
    </g>
  </g>
</svg>
